<mxfile host="app.diagrams.net" modified="2023-03-21T19:24:04.858Z" agent="5.0 (Windows NT 10.0; Win64; x64) AppleWebKit/537.36 (KHTML, like Gecko) Chrome/111.0.0.0 Safari/537.36" etag="kCiBFNKbkLOLeXhIkf84" version="21.0.6" type="github">
  <diagram name="Page-1" id="e56a1550-8fbb-45ad-956c-1786394a9013">
    <mxGraphModel dx="794" dy="373" grid="1" gridSize="10" guides="1" tooltips="1" connect="1" arrows="1" fold="1" page="1" pageScale="1" pageWidth="1100" pageHeight="850" background="none" math="0" shadow="0">
      <root>
        <mxCell id="0" />
        <mxCell id="1" parent="0" />
        <mxCell id="4p-brQcr_8AMaZ8dzpAH-2" value="Citizenship-No." style="ellipse;whiteSpace=wrap;html=1;align=center;fontStyle=4;" parent="1" vertex="1">
          <mxGeometry x="50" y="130" width="100" height="40" as="geometry" />
        </mxCell>
        <mxCell id="4p-brQcr_8AMaZ8dzpAH-3" value="address" style="ellipse;whiteSpace=wrap;html=1;align=center;" parent="1" vertex="1">
          <mxGeometry x="170" y="90" width="100" height="40" as="geometry" />
        </mxCell>
        <mxCell id="4p-brQcr_8AMaZ8dzpAH-4" value="name" style="ellipse;whiteSpace=wrap;html=1;align=center;" parent="1" vertex="1">
          <mxGeometry x="270" y="130" width="100" height="40" as="geometry" />
        </mxCell>
        <mxCell id="4p-brQcr_8AMaZ8dzpAH-5" value="Person" style="whiteSpace=wrap;html=1;align=center;" parent="1" vertex="1">
          <mxGeometry x="170" y="210" width="100" height="40" as="geometry" />
        </mxCell>
        <mxCell id="4p-brQcr_8AMaZ8dzpAH-8" value="" style="endArrow=none;html=1;rounded=0;entryX=0.75;entryY=0;entryDx=0;entryDy=0;" parent="1" target="4p-brQcr_8AMaZ8dzpAH-5" edge="1">
          <mxGeometry relative="1" as="geometry">
            <mxPoint x="120" y="170" as="sourcePoint" />
            <mxPoint x="280" y="170" as="targetPoint" />
            <Array as="points">
              <mxPoint x="190" y="210" />
            </Array>
          </mxGeometry>
        </mxCell>
        <mxCell id="4p-brQcr_8AMaZ8dzpAH-9" value="" style="endArrow=none;html=1;rounded=0;" parent="1" edge="1">
          <mxGeometry relative="1" as="geometry">
            <mxPoint x="215" y="130" as="sourcePoint" />
            <mxPoint x="215" y="210" as="targetPoint" />
          </mxGeometry>
        </mxCell>
        <mxCell id="4p-brQcr_8AMaZ8dzpAH-10" value="" style="endArrow=none;html=1;rounded=0;exitX=0.373;exitY=1.033;exitDx=0;exitDy=0;exitPerimeter=0;" parent="1" source="4p-brQcr_8AMaZ8dzpAH-4" edge="1">
          <mxGeometry relative="1" as="geometry">
            <mxPoint x="320" y="170" as="sourcePoint" />
            <mxPoint x="240" y="210" as="targetPoint" />
            <Array as="points">
              <mxPoint x="310" y="170" />
            </Array>
          </mxGeometry>
        </mxCell>
        <mxCell id="4p-brQcr_8AMaZ8dzpAH-11" value="" style="edgeStyle=entityRelationEdgeStyle;fontSize=12;html=1;endArrow=ERoneToMany;rounded=0;" parent="1" edge="1">
          <mxGeometry width="100" height="100" relative="1" as="geometry">
            <mxPoint x="270" y="230" as="sourcePoint" />
            <mxPoint x="370" y="220" as="targetPoint" />
          </mxGeometry>
        </mxCell>
        <mxCell id="4p-brQcr_8AMaZ8dzpAH-12" value="Owns" style="shape=rhombus;perimeter=rhombusPerimeter;whiteSpace=wrap;html=1;align=center;" parent="1" vertex="1">
          <mxGeometry x="370" y="190" width="120" height="60" as="geometry" />
        </mxCell>
        <mxCell id="4p-brQcr_8AMaZ8dzpAH-13" value="" style="endArrow=none;html=1;rounded=0;" parent="1" edge="1">
          <mxGeometry relative="1" as="geometry">
            <mxPoint x="490" y="220" as="sourcePoint" />
            <mxPoint x="630" y="220" as="targetPoint" />
          </mxGeometry>
        </mxCell>
        <mxCell id="4p-brQcr_8AMaZ8dzpAH-14" value="M" style="resizable=0;html=1;whiteSpace=wrap;align=left;verticalAlign=bottom;" parent="4p-brQcr_8AMaZ8dzpAH-13" connectable="0" vertex="1">
          <mxGeometry x="-1" relative="1" as="geometry" />
        </mxCell>
        <mxCell id="4p-brQcr_8AMaZ8dzpAH-15" value="N" style="resizable=0;html=1;whiteSpace=wrap;align=right;verticalAlign=bottom;" parent="4p-brQcr_8AMaZ8dzpAH-13" connectable="0" vertex="1">
          <mxGeometry x="1" relative="1" as="geometry" />
        </mxCell>
        <mxCell id="4p-brQcr_8AMaZ8dzpAH-16" value="Car" style="whiteSpace=wrap;html=1;align=center;" parent="1" vertex="1">
          <mxGeometry x="630" y="200" width="100" height="40" as="geometry" />
        </mxCell>
        <mxCell id="4p-brQcr_8AMaZ8dzpAH-19" value="Car_No." style="ellipse;whiteSpace=wrap;html=1;align=center;fontStyle=4;" parent="1" vertex="1">
          <mxGeometry x="550" y="100" width="100" height="40" as="geometry" />
        </mxCell>
        <mxCell id="4p-brQcr_8AMaZ8dzpAH-20" value="Model" style="ellipse;whiteSpace=wrap;html=1;align=center;" parent="1" vertex="1">
          <mxGeometry x="630" y="60" width="100" height="40" as="geometry" />
        </mxCell>
        <mxCell id="4p-brQcr_8AMaZ8dzpAH-21" value="Year" style="ellipse;whiteSpace=wrap;html=1;align=center;" parent="1" vertex="1">
          <mxGeometry x="710" y="100" width="100" height="40" as="geometry" />
        </mxCell>
        <mxCell id="4p-brQcr_8AMaZ8dzpAH-22" value="" style="endArrow=none;html=1;rounded=0;exitX=0.78;exitY=0.967;exitDx=0;exitDy=0;exitPerimeter=0;" parent="1" target="4p-brQcr_8AMaZ8dzpAH-16" edge="1" source="4p-brQcr_8AMaZ8dzpAH-19">
          <mxGeometry relative="1" as="geometry">
            <mxPoint x="610" y="160" as="sourcePoint" />
            <mxPoint x="770" y="160" as="targetPoint" />
          </mxGeometry>
        </mxCell>
        <mxCell id="4p-brQcr_8AMaZ8dzpAH-23" value="" style="endArrow=none;html=1;rounded=0;entryX=0.5;entryY=0;entryDx=0;entryDy=0;exitX=0.5;exitY=1;exitDx=0;exitDy=0;" parent="1" target="4p-brQcr_8AMaZ8dzpAH-16" edge="1" source="4p-brQcr_8AMaZ8dzpAH-20">
          <mxGeometry relative="1" as="geometry">
            <mxPoint x="680" y="110" as="sourcePoint" />
            <mxPoint x="840" y="110" as="targetPoint" />
            <Array as="points" />
          </mxGeometry>
        </mxCell>
        <mxCell id="4p-brQcr_8AMaZ8dzpAH-24" value="" style="endArrow=none;html=1;rounded=0;entryX=0.75;entryY=0;entryDx=0;entryDy=0;" parent="1" target="4p-brQcr_8AMaZ8dzpAH-16" edge="1">
          <mxGeometry relative="1" as="geometry">
            <mxPoint x="750" y="140" as="sourcePoint" />
            <mxPoint x="920" y="159" as="targetPoint" />
          </mxGeometry>
        </mxCell>
        <mxCell id="4p-brQcr_8AMaZ8dzpAH-26" value="Participated" style="shape=rhombus;perimeter=rhombusPerimeter;whiteSpace=wrap;html=1;align=center;" parent="1" vertex="1">
          <mxGeometry x="600" y="360" width="120" height="60" as="geometry" />
        </mxCell>
        <mxCell id="4p-brQcr_8AMaZ8dzpAH-27" value="" style="endArrow=none;html=1;rounded=0;entryX=0;entryY=0.5;entryDx=0;entryDy=0;" parent="1" target="4p-brQcr_8AMaZ8dzpAH-26" edge="1">
          <mxGeometry relative="1" as="geometry">
            <mxPoint x="220" y="250" as="sourcePoint" />
            <mxPoint x="380" y="250" as="targetPoint" />
          </mxGeometry>
        </mxCell>
        <mxCell id="4p-brQcr_8AMaZ8dzpAH-28" value="M" style="resizable=0;html=1;whiteSpace=wrap;align=left;verticalAlign=bottom;" parent="4p-brQcr_8AMaZ8dzpAH-27" connectable="0" vertex="1">
          <mxGeometry x="-1" relative="1" as="geometry">
            <mxPoint x="40" y="20" as="offset" />
          </mxGeometry>
        </mxCell>
        <mxCell id="4p-brQcr_8AMaZ8dzpAH-29" value="N" style="resizable=0;html=1;whiteSpace=wrap;align=right;verticalAlign=bottom;" parent="4p-brQcr_8AMaZ8dzpAH-27" connectable="0" vertex="1">
          <mxGeometry x="1" relative="1" as="geometry" />
        </mxCell>
        <mxCell id="4p-brQcr_8AMaZ8dzpAH-30" value="" style="edgeStyle=entityRelationEdgeStyle;fontSize=12;html=1;endArrow=ERmany;startArrow=ERmany;rounded=0;" parent="1" edge="1">
          <mxGeometry width="100" height="100" relative="1" as="geometry">
            <mxPoint x="710" y="390" as="sourcePoint" />
            <mxPoint x="840" y="390" as="targetPoint" />
          </mxGeometry>
        </mxCell>
        <mxCell id="4p-brQcr_8AMaZ8dzpAH-31" value="Accident" style="whiteSpace=wrap;html=1;align=center;" parent="1" vertex="1">
          <mxGeometry x="840" y="370" width="100" height="40" as="geometry" />
        </mxCell>
        <mxCell id="4p-brQcr_8AMaZ8dzpAH-33" value="Report Number" style="ellipse;whiteSpace=wrap;html=1;align=center;fontStyle=4;" parent="1" vertex="1">
          <mxGeometry x="790" y="300" width="100" height="40" as="geometry" />
        </mxCell>
        <mxCell id="4p-brQcr_8AMaZ8dzpAH-34" value="Location" style="ellipse;whiteSpace=wrap;html=1;align=center;" parent="1" vertex="1">
          <mxGeometry x="850" y="250" width="100" height="40" as="geometry" />
        </mxCell>
        <mxCell id="4p-brQcr_8AMaZ8dzpAH-35" value="Date" style="ellipse;whiteSpace=wrap;html=1;align=center;" parent="1" vertex="1">
          <mxGeometry x="920" y="300" width="100" height="40" as="geometry" />
        </mxCell>
        <mxCell id="4p-brQcr_8AMaZ8dzpAH-38" value="" style="endArrow=none;html=1;rounded=0;entryX=0.25;entryY=0;entryDx=0;entryDy=0;" parent="1" target="4p-brQcr_8AMaZ8dzpAH-31" edge="1">
          <mxGeometry relative="1" as="geometry">
            <mxPoint x="830" y="340" as="sourcePoint" />
            <mxPoint x="990" y="340" as="targetPoint" />
          </mxGeometry>
        </mxCell>
        <mxCell id="4p-brQcr_8AMaZ8dzpAH-39" value="" style="endArrow=none;html=1;rounded=0;entryX=0.587;entryY=0;entryDx=0;entryDy=0;entryPerimeter=0;" parent="1" target="4p-brQcr_8AMaZ8dzpAH-31" edge="1">
          <mxGeometry relative="1" as="geometry">
            <mxPoint x="900" y="290" as="sourcePoint" />
            <mxPoint x="900" y="360" as="targetPoint" />
          </mxGeometry>
        </mxCell>
        <mxCell id="4p-brQcr_8AMaZ8dzpAH-41" value="" style="endArrow=none;html=1;rounded=0;entryX=0.413;entryY=1.017;entryDx=0;entryDy=0;entryPerimeter=0;" parent="1" target="4p-brQcr_8AMaZ8dzpAH-35" edge="1">
          <mxGeometry relative="1" as="geometry">
            <mxPoint x="910" y="370" as="sourcePoint" />
            <mxPoint x="1070" y="370" as="targetPoint" />
          </mxGeometry>
        </mxCell>
        <mxCell id="4p-brQcr_8AMaZ8dzpAH-42" value="" style="shape=link;html=1;rounded=0;entryX=0.5;entryY=0;entryDx=0;entryDy=0;" parent="1" target="4p-brQcr_8AMaZ8dzpAH-26" edge="1">
          <mxGeometry relative="1" as="geometry">
            <mxPoint x="660" y="240" as="sourcePoint" />
            <mxPoint x="820" y="240" as="targetPoint" />
          </mxGeometry>
        </mxCell>
        <mxCell id="4p-brQcr_8AMaZ8dzpAH-43" value="N" style="resizable=0;html=1;whiteSpace=wrap;align=right;verticalAlign=bottom;" parent="4p-brQcr_8AMaZ8dzpAH-42" connectable="0" vertex="1">
          <mxGeometry x="1" relative="1" as="geometry">
            <mxPoint x="-10" as="offset" />
          </mxGeometry>
        </mxCell>
        <mxCell id="VjRvoRHhbJw2GcXZ_2g6-2" value="Insurance Database" style="whiteSpace=wrap;html=1;align=center;" vertex="1" parent="1">
          <mxGeometry x="820" y="520" width="100" height="40" as="geometry" />
        </mxCell>
        <mxCell id="VjRvoRHhbJw2GcXZ_2g6-3" value="Insurance Id" style="ellipse;whiteSpace=wrap;html=1;align=center;fontStyle=4;" vertex="1" parent="1">
          <mxGeometry x="730" y="600" width="100" height="40" as="geometry" />
        </mxCell>
        <mxCell id="VjRvoRHhbJw2GcXZ_2g6-4" value="Insurance Owner" style="ellipse;whiteSpace=wrap;html=1;align=center;" vertex="1" parent="1">
          <mxGeometry x="940" y="600" width="100" height="40" as="geometry" />
        </mxCell>
        <mxCell id="VjRvoRHhbJw2GcXZ_2g6-5" value="Insurance amount" style="ellipse;whiteSpace=wrap;html=1;align=center;" vertex="1" parent="1">
          <mxGeometry x="840" y="650" width="100" height="40" as="geometry" />
        </mxCell>
        <mxCell id="VjRvoRHhbJw2GcXZ_2g6-9" value="" style="endArrow=none;html=1;rounded=0;entryX=0.25;entryY=1;entryDx=0;entryDy=0;" edge="1" parent="1" target="VjRvoRHhbJw2GcXZ_2g6-2">
          <mxGeometry relative="1" as="geometry">
            <mxPoint x="800" y="600" as="sourcePoint" />
            <mxPoint x="960" y="600" as="targetPoint" />
          </mxGeometry>
        </mxCell>
        <mxCell id="VjRvoRHhbJw2GcXZ_2g6-10" value="" style="endArrow=none;html=1;rounded=0;entryX=0.75;entryY=1;entryDx=0;entryDy=0;" edge="1" parent="1" target="VjRvoRHhbJw2GcXZ_2g6-2">
          <mxGeometry relative="1" as="geometry">
            <mxPoint x="980" y="600" as="sourcePoint" />
            <mxPoint x="1140" y="600" as="targetPoint" />
          </mxGeometry>
        </mxCell>
        <mxCell id="VjRvoRHhbJw2GcXZ_2g6-11" value="" style="endArrow=none;html=1;rounded=0;entryX=0.6;entryY=1;entryDx=0;entryDy=0;entryPerimeter=0;" edge="1" parent="1" target="VjRvoRHhbJw2GcXZ_2g6-2">
          <mxGeometry relative="1" as="geometry">
            <mxPoint x="880" y="650" as="sourcePoint" />
            <mxPoint x="1040" y="650" as="targetPoint" />
          </mxGeometry>
        </mxCell>
        <mxCell id="VjRvoRHhbJw2GcXZ_2g6-19" value="Phone Number" style="ellipse;whiteSpace=wrap;html=1;align=center;" vertex="1" parent="1">
          <mxGeometry x="10" y="210" width="100" height="40" as="geometry" />
        </mxCell>
        <mxCell id="VjRvoRHhbJw2GcXZ_2g6-21" value="" style="endArrow=none;html=1;rounded=0;entryX=0;entryY=0.5;entryDx=0;entryDy=0;" edge="1" parent="1" target="4p-brQcr_8AMaZ8dzpAH-5">
          <mxGeometry relative="1" as="geometry">
            <mxPoint x="110" y="230" as="sourcePoint" />
            <mxPoint x="260" y="230" as="targetPoint" />
          </mxGeometry>
        </mxCell>
        <mxCell id="VjRvoRHhbJw2GcXZ_2g6-22" value="Brand" style="ellipse;whiteSpace=wrap;html=1;align=center;" vertex="1" parent="1">
          <mxGeometry x="780" y="140" width="100" height="40" as="geometry" />
        </mxCell>
        <mxCell id="VjRvoRHhbJw2GcXZ_2g6-24" value="Cost of Car" style="ellipse;whiteSpace=wrap;html=1;align=center;" vertex="1" parent="1">
          <mxGeometry x="480" y="140" width="100" height="40" as="geometry" />
        </mxCell>
        <mxCell id="VjRvoRHhbJw2GcXZ_2g6-25" value="" style="endArrow=none;html=1;rounded=0;entryX=0.25;entryY=0;entryDx=0;entryDy=0;" edge="1" parent="1" target="4p-brQcr_8AMaZ8dzpAH-16">
          <mxGeometry relative="1" as="geometry">
            <mxPoint x="570" y="170" as="sourcePoint" />
            <mxPoint x="730" y="170" as="targetPoint" />
          </mxGeometry>
        </mxCell>
        <mxCell id="VjRvoRHhbJw2GcXZ_2g6-27" value="" style="endArrow=none;html=1;rounded=0;entryX=0;entryY=0.75;entryDx=0;entryDy=0;entryPerimeter=0;" edge="1" parent="1" target="VjRvoRHhbJw2GcXZ_2g6-22">
          <mxGeometry relative="1" as="geometry">
            <mxPoint x="720" y="200" as="sourcePoint" />
            <mxPoint x="880" y="200" as="targetPoint" />
          </mxGeometry>
        </mxCell>
        <mxCell id="VjRvoRHhbJw2GcXZ_2g6-28" value="" style="endArrow=none;html=1;rounded=0;" edge="1" parent="1">
          <mxGeometry relative="1" as="geometry">
            <mxPoint x="930" y="390" as="sourcePoint" />
            <mxPoint x="990" y="390" as="targetPoint" />
          </mxGeometry>
        </mxCell>
        <mxCell id="VjRvoRHhbJw2GcXZ_2g6-29" value="Severity" style="ellipse;whiteSpace=wrap;html=1;align=center;" vertex="1" parent="1">
          <mxGeometry x="990" y="370" width="100" height="40" as="geometry" />
        </mxCell>
        <mxCell id="VjRvoRHhbJw2GcXZ_2g6-30" value="Claim" style="shape=rhombus;perimeter=rhombusPerimeter;whiteSpace=wrap;html=1;align=center;" vertex="1" parent="1">
          <mxGeometry x="820" y="440" width="120" height="60" as="geometry" />
        </mxCell>
        <mxCell id="VjRvoRHhbJw2GcXZ_2g6-31" value="" style="edgeStyle=entityRelationEdgeStyle;fontSize=12;html=1;endArrow=ERmandOne;startArrow=ERmandOne;rounded=0;entryX=0.5;entryY=0;entryDx=0;entryDy=0;" edge="1" parent="1" source="VjRvoRHhbJw2GcXZ_2g6-30" target="VjRvoRHhbJw2GcXZ_2g6-2">
          <mxGeometry width="100" height="100" relative="1" as="geometry">
            <mxPoint x="880" y="600" as="sourcePoint" />
            <mxPoint x="880" y="641.4213562373095" as="targetPoint" />
          </mxGeometry>
        </mxCell>
        <mxCell id="VjRvoRHhbJw2GcXZ_2g6-32" value="" style="edgeStyle=entityRelationEdgeStyle;fontSize=12;html=1;endArrow=ERmandOne;startArrow=ERmandOne;rounded=0;entryX=0.5;entryY=1;entryDx=0;entryDy=0;exitX=0.5;exitY=0;exitDx=0;exitDy=0;" edge="1" parent="1" source="VjRvoRHhbJw2GcXZ_2g6-30" target="4p-brQcr_8AMaZ8dzpAH-31">
          <mxGeometry width="100" height="100" relative="1" as="geometry">
            <mxPoint x="820" y="470" as="sourcePoint" />
            <mxPoint x="920" y="370" as="targetPoint" />
          </mxGeometry>
        </mxCell>
        <mxCell id="VjRvoRHhbJw2GcXZ_2g6-35" value="Medical" style="shape=associativeEntity;whiteSpace=wrap;html=1;align=center;" vertex="1" parent="1">
          <mxGeometry x="170" y="370" width="140" height="60" as="geometry" />
        </mxCell>
        <mxCell id="VjRvoRHhbJw2GcXZ_2g6-36" value="" style="endArrow=none;html=1;rounded=0;entryX=0.167;entryY=0.689;entryDx=0;entryDy=0;entryPerimeter=0;" edge="1" parent="1" target="4p-brQcr_8AMaZ8dzpAH-26">
          <mxGeometry relative="1" as="geometry">
            <mxPoint x="310" y="400" as="sourcePoint" />
            <mxPoint x="470" y="400" as="targetPoint" />
            <Array as="points">
              <mxPoint x="620" y="401" />
            </Array>
          </mxGeometry>
        </mxCell>
        <mxCell id="VjRvoRHhbJw2GcXZ_2g6-37" value="" style="endArrow=none;html=1;rounded=0;entryX=0.68;entryY=1;entryDx=0;entryDy=0;exitX=0.5;exitY=0;exitDx=0;exitDy=0;entryPerimeter=0;" edge="1" parent="1" source="VjRvoRHhbJw2GcXZ_2g6-35" target="4p-brQcr_8AMaZ8dzpAH-5">
          <mxGeometry relative="1" as="geometry">
            <mxPoint x="230" y="370" as="sourcePoint" />
            <mxPoint x="390" y="370" as="targetPoint" />
          </mxGeometry>
        </mxCell>
        <mxCell id="VjRvoRHhbJw2GcXZ_2g6-38" value="Hospital" style="whiteSpace=wrap;html=1;align=center;" vertex="1" parent="1">
          <mxGeometry x="180" y="510" width="100" height="40" as="geometry" />
        </mxCell>
        <mxCell id="VjRvoRHhbJw2GcXZ_2g6-44" value="Associated Doctor" style="ellipse;shape=doubleEllipse;margin=3;whiteSpace=wrap;html=1;align=center;" vertex="1" parent="1">
          <mxGeometry x="270" y="600" width="100" height="40" as="geometry" />
        </mxCell>
        <mxCell id="VjRvoRHhbJw2GcXZ_2g6-45" value="Doctor ID" style="ellipse;whiteSpace=wrap;html=1;align=center;" vertex="1" parent="1">
          <mxGeometry x="360" y="670" width="100" height="40" as="geometry" />
        </mxCell>
        <mxCell id="VjRvoRHhbJw2GcXZ_2g6-46" value="Doctor Name" style="ellipse;whiteSpace=wrap;html=1;align=center;" vertex="1" parent="1">
          <mxGeometry x="220" y="670" width="100" height="40" as="geometry" />
        </mxCell>
        <mxCell id="VjRvoRHhbJw2GcXZ_2g6-47" value="" style="endArrow=none;html=1;rounded=0;entryX=0.32;entryY=1.017;entryDx=0;entryDy=0;entryPerimeter=0;" edge="1" parent="1" target="VjRvoRHhbJw2GcXZ_2g6-44">
          <mxGeometry relative="1" as="geometry">
            <mxPoint x="280" y="670" as="sourcePoint" />
            <mxPoint x="440" y="670" as="targetPoint" />
          </mxGeometry>
        </mxCell>
        <mxCell id="VjRvoRHhbJw2GcXZ_2g6-48" value="" style="endArrow=none;html=1;rounded=0;" edge="1" parent="1" target="VjRvoRHhbJw2GcXZ_2g6-45">
          <mxGeometry relative="1" as="geometry">
            <mxPoint x="340" y="640" as="sourcePoint" />
            <mxPoint x="500" y="640" as="targetPoint" />
          </mxGeometry>
        </mxCell>
        <mxCell id="VjRvoRHhbJw2GcXZ_2g6-49" value="Treatment" style="ellipse;whiteSpace=wrap;html=1;align=center;" vertex="1" parent="1">
          <mxGeometry x="80" y="550" width="100" height="40" as="geometry" />
        </mxCell>
        <mxCell id="VjRvoRHhbJw2GcXZ_2g6-50" value="Insurance&amp;nbsp;" style="ellipse;whiteSpace=wrap;html=1;align=center;" vertex="1" parent="1">
          <mxGeometry x="280" y="550" width="100" height="40" as="geometry" />
        </mxCell>
        <mxCell id="VjRvoRHhbJw2GcXZ_2g6-53" value="Patient Record" style="ellipse;shape=doubleEllipse;margin=3;whiteSpace=wrap;html=1;align=center;" vertex="1" parent="1">
          <mxGeometry x="60" y="600" width="100" height="40" as="geometry" />
        </mxCell>
        <mxCell id="VjRvoRHhbJw2GcXZ_2g6-54" value="Patient Id" style="ellipse;whiteSpace=wrap;html=1;align=center;" vertex="1" parent="1">
          <mxGeometry y="670" width="100" height="40" as="geometry" />
        </mxCell>
        <mxCell id="VjRvoRHhbJw2GcXZ_2g6-55" value="Patient Name" style="ellipse;whiteSpace=wrap;html=1;align=center;" vertex="1" parent="1">
          <mxGeometry x="110" y="670" width="100" height="40" as="geometry" />
        </mxCell>
        <mxCell id="VjRvoRHhbJw2GcXZ_2g6-56" value="" style="endArrow=none;html=1;rounded=0;entryX=0.34;entryY=0.983;entryDx=0;entryDy=0;entryPerimeter=0;" edge="1" parent="1" target="VjRvoRHhbJw2GcXZ_2g6-53">
          <mxGeometry relative="1" as="geometry">
            <mxPoint x="50" y="670" as="sourcePoint" />
            <mxPoint x="210" y="670" as="targetPoint" />
          </mxGeometry>
        </mxCell>
        <mxCell id="VjRvoRHhbJw2GcXZ_2g6-57" value="" style="endArrow=none;html=1;rounded=0;" edge="1" parent="1">
          <mxGeometry relative="1" as="geometry">
            <mxPoint x="120" y="640" as="sourcePoint" />
            <mxPoint x="170" y="670" as="targetPoint" />
          </mxGeometry>
        </mxCell>
        <mxCell id="VjRvoRHhbJw2GcXZ_2g6-58" value="" style="endArrow=none;html=1;rounded=0;entryX=0.25;entryY=1;entryDx=0;entryDy=0;exitX=1;exitY=0.5;exitDx=0;exitDy=0;" edge="1" parent="1" source="VjRvoRHhbJw2GcXZ_2g6-49" target="VjRvoRHhbJw2GcXZ_2g6-38">
          <mxGeometry relative="1" as="geometry">
            <mxPoint x="170" y="570" as="sourcePoint" />
            <mxPoint x="330" y="570" as="targetPoint" />
          </mxGeometry>
        </mxCell>
        <mxCell id="VjRvoRHhbJw2GcXZ_2g6-59" value="" style="endArrow=none;html=1;rounded=0;entryX=0.4;entryY=1;entryDx=0;entryDy=0;entryPerimeter=0;" edge="1" parent="1" target="VjRvoRHhbJw2GcXZ_2g6-38">
          <mxGeometry relative="1" as="geometry">
            <mxPoint x="160" y="620" as="sourcePoint" />
            <mxPoint x="320" y="620" as="targetPoint" />
          </mxGeometry>
        </mxCell>
        <mxCell id="VjRvoRHhbJw2GcXZ_2g6-60" value="" style="endArrow=none;html=1;rounded=0;exitX=0.5;exitY=1;exitDx=0;exitDy=0;" edge="1" parent="1" source="VjRvoRHhbJw2GcXZ_2g6-38">
          <mxGeometry relative="1" as="geometry">
            <mxPoint x="110" y="620" as="sourcePoint" />
            <mxPoint x="270" y="620" as="targetPoint" />
          </mxGeometry>
        </mxCell>
        <mxCell id="VjRvoRHhbJw2GcXZ_2g6-61" value="" style="endArrow=none;html=1;rounded=0;entryX=0.75;entryY=1;entryDx=0;entryDy=0;" edge="1" parent="1" target="VjRvoRHhbJw2GcXZ_2g6-38">
          <mxGeometry relative="1" as="geometry">
            <mxPoint x="280" y="570" as="sourcePoint" />
            <mxPoint x="440" y="570" as="targetPoint" />
          </mxGeometry>
        </mxCell>
        <mxCell id="VjRvoRHhbJw2GcXZ_2g6-62" value="" style="endArrow=none;html=1;rounded=0;entryX=0.5;entryY=1;entryDx=0;entryDy=0;exitX=0.58;exitY=-0.067;exitDx=0;exitDy=0;exitPerimeter=0;" edge="1" parent="1" source="VjRvoRHhbJw2GcXZ_2g6-38" target="VjRvoRHhbJw2GcXZ_2g6-35">
          <mxGeometry relative="1" as="geometry">
            <mxPoint x="230" y="510" as="sourcePoint" />
            <mxPoint x="390" y="510" as="targetPoint" />
          </mxGeometry>
        </mxCell>
        <mxCell id="VjRvoRHhbJw2GcXZ_2g6-63" value="Personal Insurance" style="shape=rhombus;perimeter=rhombusPerimeter;whiteSpace=wrap;html=1;align=center;" vertex="1" parent="1">
          <mxGeometry x="460" y="510" width="120" height="60" as="geometry" />
        </mxCell>
        <mxCell id="VjRvoRHhbJw2GcXZ_2g6-64" value="" style="endArrow=none;html=1;rounded=0;entryX=0;entryY=0.5;entryDx=0;entryDy=0;" edge="1" parent="1" target="VjRvoRHhbJw2GcXZ_2g6-63">
          <mxGeometry relative="1" as="geometry">
            <mxPoint x="280" y="530" as="sourcePoint" />
            <mxPoint x="440" y="530" as="targetPoint" />
          </mxGeometry>
        </mxCell>
        <mxCell id="VjRvoRHhbJw2GcXZ_2g6-65" value="" style="endArrow=none;html=1;rounded=0;entryX=0;entryY=0.5;entryDx=0;entryDy=0;" edge="1" parent="1" target="VjRvoRHhbJw2GcXZ_2g6-2">
          <mxGeometry relative="1" as="geometry">
            <mxPoint x="580" y="540" as="sourcePoint" />
            <mxPoint x="740" y="540" as="targetPoint" />
          </mxGeometry>
        </mxCell>
      </root>
    </mxGraphModel>
  </diagram>
</mxfile>
